<?xml version="1.0" ?><!DOCTYPE svg  PUBLIC '-//W3C//DTD SVG 1.1//EN'  'http://www.w3.org/Graphics/SVG/1.1/DTD/svg11.dtd'><svg enable-background="new 0 0 512 512" height="512px" id="Shipping_x5F_restrictions" version="1.1" viewBox="0 0 512 512" width="512px" xml:space="preserve" xmlns="http://www.w3.org/2000/svg" xmlns:xlink="http://www.w3.org/1999/xlink"><g><polygon points="340.045,129.583 332.975,122.512 306.434,149.053 296.441,139.063 289.371,146.134 306.434,163.195  "/><polygon points="84.684,20.457 84.684,491.543 427.316,491.543 427.316,131.008 417.316,131.008 417.316,481.543 94.684,481.543    94.684,30.457 417.316,30.457 417.316,89.341 427.316,89.341 427.316,20.457  "/><rect height="13.053" width="10" x="417.316" y="104.288"/><path d="M103.561,403.504v61.667h260.578l44.301-42.359V57.341H305.172c0.534-2.922,0.828-5.926,0.828-9v-8H206v8   c0,3.074,0.293,6.078,0.826,9H103.561v329.561h10V67.341h96.199c7.495,18.173,25.394,31,46.24,31c20.846,0,38.744-12.827,46.239-31   h96.2v347.5h-42.308v27.667h10v-17.667h25.716l-31.721,30.33H113.561v-51.667H103.561z M256,88.341   c-21.387,0-38.906-16.869-39.951-38h79.9C294.904,71.472,277.385,88.341,256,88.341z"/><rect height="10" width="46" x="233" y="57.341"/><polygon points="190.281,168.895 190.281,245.355 262.121,245.355 262.121,235.355 200.281,235.355 200.281,168.895  "/><path d="M222.688,137.598v0.005h-32.412v18.187h10v-8.187h22.412v57.135h46.414v-57.135h4.321   c1.847,11.743,8.599,21.876,18.087,28.231v59.517h-14.277v10h24.277v-64.615c4.151,1.386,8.587,2.147,13.199,2.147   c23.047,0,41.797-18.75,41.797-41.797c0-23.048-18.75-41.798-41.797-41.798c-21.874,0-39.864,16.893-41.641,38.314h-3.967v-0.005   H222.688z M259.102,194.737h-26.414v-47.135h26.414V194.737z M314.709,109.288c17.533,0,31.797,14.265,31.797,31.798   s-14.264,31.797-31.797,31.797s-31.797-14.264-31.797-31.797S297.176,109.288,314.709,109.288z"/><polygon points="173.742,289.936 173.742,279.936 142.34,279.936 142.34,332.186 194.59,332.186 194.59,295.646 206.705,283.53    199.635,276.459 172.581,303.512 164.043,294.975 156.973,302.045 172.581,317.654 184.59,305.646 184.59,322.186 152.34,322.186    152.34,289.936  "/><polygon points="142.34,408.504 194.59,408.504 194.59,371.965 206.705,359.849 199.635,352.777 172.581,379.83 164.043,371.293    156.973,378.363 172.581,393.973 184.59,381.965 184.59,398.504 152.34,398.504 152.34,366.255 173.742,366.255 173.742,356.255    142.34,356.255  "/><rect height="10" width="136.827" x="224.305" y="303.852"/><rect height="10" width="136.827" x="224.305" y="285.809"/><rect height="10" width="136.827" x="224.305" y="374.297"/><rect height="10" width="136.827" x="224.305" y="356.255"/></g></svg>